<?xml version="1.0" encoding="utf-8"?>
<!-- Generator: Adobe Illustrator 24.1.1, SVG Export Plug-In . SVG Version: 6.00 Build 0)  -->
<svg version="1.1" id="Layer_1" xmlns="http://www.w3.org/2000/svg" xmlns:xlink="http://www.w3.org/1999/xlink" x="0px" y="0px"
	 viewBox="0 0 479.5 139.4" style="enable-background:new 0 0 479.5 139.4;" xml:space="preserve">
<style type="text/css">
	.st0{fill:#FFFFFF;}
	.st1{fill:#5956E9;}
</style>
<g>
	<path class="st0" d="M90.6,114.4c0.2-0.1,0.6-0.2,1.2-0.3c0.6-0.1,1.2-0.2,1.8-0.4c0.6-0.1,1.3-0.2,2-0.3c0.7-0.1,1.3-0.1,1.8-0.1
		V72.6c-1.7-0.1-3.1-0.3-4-0.6c-1-0.3-1.7-0.8-2.1-1.4c-0.5-0.6-0.7-1.3-0.8-2c-0.1-0.8-0.1-1.6,0-2.5h10.4c0.4,0,1.2,0,2.4,0
		c1.2,0,2.4-0.1,3.8-0.1c1.4-0.1,2.8-0.1,4.2-0.1c1.4,0,2.6,0,3.7,0c2.6,0,5.1,0.3,7.4,1c2.3,0.7,4.2,1.6,5.9,2.8
		c1.7,1.2,3,2.7,3.9,4.4c1,1.7,1.4,3.6,1.4,5.7s-0.3,3.9-1,5.4c-0.6,1.5-1.5,2.7-2.5,3.7c-1,1-2.2,1.7-3.5,2.2
		c-1.3,0.5-2.6,0.9-3.9,1.1v0.5c3.9,0.8,7,2.2,9.3,4.2c2.4,2.1,3.5,4.9,3.5,8.6c0,2.2-0.4,4.2-1.3,6c-0.9,1.8-2.1,3.4-3.8,4.7
		c-1.6,1.3-3.6,2.3-6,3.1c-2.4,0.7-5.1,1.1-8.1,1.1c-1.6,0-3.3,0-5.3-0.1c-2-0.1-3.8-0.1-5.3-0.2H90.4L90.6,114.4z M113.2,72.5
		c-0.9,0-1.9,0-3.1,0c-1.2,0-2.2,0-3.1,0v16.6h5.8c1.4,0,2.8-0.1,4.1-0.4c1.3-0.3,2.5-0.8,3.4-1.4c1-0.7,1.8-1.6,2.4-2.7
		c0.6-1.1,0.9-2.5,0.9-4.1c0-2.7-0.9-4.8-2.7-6.1C118.9,73.2,116.4,72.5,113.2,72.5z M106.9,96.1v17.1c0.3,0,0.9,0,1.6,0
		c0.8,0,1.6,0.1,2.5,0.1c0.9,0,1.8,0,2.6,0c0.8,0,1.4,0,1.7,0c2.9,0.1,5.4-0.6,7.3-2c1.9-1.4,2.9-3.5,2.9-6.4c0-2.6-1-4.8-3-6.4
		c-2-1.6-5-2.5-9-2.5H106.9z"/>
	<path class="st0" d="M168.8,119c-0.5-0.4-1-1-1.3-1.7c-0.3-0.7-0.6-1.5-0.8-2.3c-1.1,1.4-2.7,2.7-4.7,3.9c-2,1.1-4.1,1.7-6.3,1.7
		c-1.8,0-3.4-0.2-5-0.7c-1.6-0.5-3-1.2-4.2-2.3c-1.2-1-2.2-2.4-2.9-4c-0.7-1.6-1.1-3.6-1.1-5.9V91.2c-1.4,0-2.6-0.4-3.7-1.1
		c-1.1-0.7-1.7-1.7-1.8-3c-0.1-0.7-0.1-1.3,0.1-1.8l14.5-1l-0.5,6.8v15c0,1,0.1,1.9,0.4,2.8c0.3,0.9,0.7,1.7,1.4,2.5
		c0.6,0.7,1.4,1.3,2.3,1.8c0.9,0.5,2,0.7,3.3,0.7c1.5,0,2.9-0.4,4.2-1.3c1.3-0.9,2.4-1.9,3.4-3.2V91.1c-1-0.1-2-0.3-2.9-0.4
		c-0.9-0.2-1.7-0.4-2.2-0.7l0.3-5.3l13.4-0.3v26.2c0,0.4,0,0.8,0.1,1.2c0.1,0.3,0.1,0.7,0.2,0.9c0.1,0.3,0.2,0.6,0.2,0.9l5.8,1.1
		v5.1c-0.6,0.2-1.3,0.3-1.9,0.5c-0.6,0.1-1.2,0.2-1.9,0.3c-0.7,0.1-1.4,0.2-2.2,0.2c-1.5,0.1-2.7,0-3.6-0.2
		C170.5,120.3,169.6,119.8,168.8,119z"/>
	<path class="st0" d="M188.8,126.4c0.3,0,0.6,0,0.9,0c0.3,0,0.6,0.1,0.9,0.2c1.2,0.2,2.3,0.7,3.1,1.6c0.8,0.9,1.3,2.1,1.4,3.6
		c1.5,0.4,3.2,0.8,5,1c1.8,0.2,3.5,0.4,5.2,0.4c1.1,0,2.3-0.1,3.5-0.2c1.2-0.1,2.3-0.4,3.4-0.7c1-0.3,1.9-0.9,2.6-1.6
		c0.7-0.7,1-1.6,1-2.7c0-1.6-0.8-2.8-2.3-3.6c-1.6-0.8-3.6-1.3-6.2-1.4l-13.2-1.8c-2.7-0.3-4.8-1.1-6.1-2.3c-1.3-1.2-2-2.6-2-4.2
		c0-1.7,0.5-3.2,1.6-4.4c1.1-1.2,2.5-2.3,4.4-3.4c-1.5-1.1-2.7-2.4-3.6-4c-0.8-1.6-1.3-3.4-1.3-5.5c0-2,0.4-3.8,1.2-5.5
		c0.8-1.7,1.9-3.1,3.4-4.3c1.4-1.2,3.2-2.1,5.3-2.8c2.1-0.7,4.4-1,7-1c3.3,0,6.1,0.5,8.6,1.6c1.1-0.9,2.6-1.7,4.4-2.4
		c1.8-0.7,3.7-1,5.8-1c1.1,0,2.1,0.1,3.2,0.4c1.1,0.3,2.1,0.7,3,1.3l-1,8c-1,0-1.8-0.1-2.5-0.4c-0.6-0.2-1.2-0.6-1.6-1
		c-0.5-0.5-0.8-1-1.1-1.6c-0.3-0.6-0.6-1.3-0.8-2.1c-1.7,0.2-3.3,0.8-5,1.8c1.1,1.1,2,2.4,2.6,3.8c0.6,1.4,0.9,3,0.9,4.6
		c0,2-0.4,3.9-1.2,5.5c-0.8,1.7-1.9,3.1-3.4,4.3c-1.4,1.2-3.2,2.1-5.2,2.7c-2.1,0.6-4.4,1-6.9,1c-2.8,0-5.3-0.3-7.4-1
		c-0.4,0.3-0.7,0.7-1.1,1.1c-0.3,0.4-0.6,0.9-0.8,1.3c-0.4,1.8-0.1,2.8,0.9,3l13.1,1.4c2.5,0.3,4.7,0.8,6.7,1.3c2,0.5,3.7,1.3,5,2.2
		c1.4,0.9,2.4,2,3.2,3.4c0.7,1.3,1.1,3,1.1,4.9c0,2.2-0.5,4-1.5,5.5c-1,1.5-2.3,2.7-4,3.6c-1.7,0.9-3.5,1.6-5.6,2
		c-2.1,0.4-4.2,0.6-6.5,0.6c-1.8,0-3.7-0.1-5.7-0.3c-2-0.2-3.8-0.5-5.6-0.9c-1.8-0.4-3.4-0.9-4.9-1.3c-1.5-0.5-2.6-1-3.5-1.6
		L188.8,126.4z M204,104.8c2.2,0,4-0.7,5.4-2c1.3-1.3,2-3.3,2-5.9c0-2.6-0.7-4.6-2-5.9c-1.4-1.3-3.2-1.9-5.4-1.9
		c-2.2,0-4.1,0.6-5.5,1.8c-1.4,1.2-2.1,3.2-2.1,6c0,2.6,0.7,4.6,2.1,5.9C199.9,104.2,201.7,104.8,204,104.8z"/>
	<path class="st0" d="M268,97.5v15.7c0.5,0,1.1,0.1,2,0.2c0.8,0.1,1.7,0.2,2.5,0.3c0.8,0.1,1.6,0.2,2.3,0.4c0.7,0.1,1.2,0.2,1.5,0.3
		l0.2,5.5h-25l0.2-5.5c0.2-0.1,0.6-0.2,1.2-0.3c0.6-0.1,1.2-0.2,1.8-0.4c0.6-0.1,1.3-0.2,2-0.3c0.7-0.1,1.3-0.1,1.8-0.1V72.6
		c-1.7-0.1-3-0.3-3.9-0.6c-0.9-0.3-1.6-0.8-2.1-1.4c-0.5-0.6-0.8-1.3-0.8-2c-0.1-0.8-0.1-1.6,0-2.5h39.5v13.3
		c-0.9,0.2-1.7,0.3-2.6,0.3c-1.9,0-3.2-0.6-3.9-1.9c-0.6-1.3-1-3-1.1-5.2H268v18.3h11.2c0.1-0.1,0.1-0.3,0.2-0.7
		c0.1-0.4,0.1-0.7,0.2-1.1c0.1-0.4,0.2-0.7,0.2-1.1c0.1-0.3,0.1-0.5,0.2-0.6l5.3,0.1l-0.3,6.6l0.5,6.7l-5.5,0.2
		c-0.1-0.1-0.1-0.3-0.2-0.6c-0.1-0.3-0.2-0.7-0.2-1.1c-0.1-0.4-0.1-0.8-0.2-1.1c-0.1-0.3-0.1-0.6-0.2-0.7H268z"/>
	<path class="st0" d="M292.4,114.4c0.6-0.2,1.5-0.4,2.7-0.6c1.2-0.2,2.2-0.3,3.1-0.4V91.2c-0.2,0-0.5,0-0.9,0
		c-0.4,0-0.7-0.1-0.9-0.1c-2.2-0.5-3.4-1.8-3.5-3.9c-0.1-0.3-0.1-0.6-0.1-0.9c0-0.3,0-0.6,0.1-0.9l14-1l-0.1,6.1v23
		c0.5,0,1,0,1.6,0.1c0.6,0.1,1.1,0.2,1.7,0.2c0.6,0.1,1.1,0.2,1.6,0.3c0.5,0.1,0.9,0.2,1.1,0.3l0.2,5.5h-20.7L292.4,114.4z
		 M302,77.1c-1.4,0-2.7-0.5-3.6-1.4c-1-0.9-1.4-2.1-1.4-3.4c0-1.5,0.5-2.7,1.5-3.7c1-1,2.3-1.5,3.9-1.5c1.5,0,2.7,0.5,3.7,1.4
		c0.9,0.9,1.4,2.1,1.4,3.5c0,1.5-0.5,2.7-1.5,3.7C304.9,76.6,303.6,77.1,302,77.1z"/>
	<path class="st0" d="M317.3,114.4c0.6-0.2,1.5-0.4,2.7-0.6c1.2-0.2,2.2-0.3,3.1-0.4V91.2c-0.2,0-0.5,0-0.9,0c-0.4,0-0.7,0-0.9-0.1
		c-2.2-0.5-3.4-1.8-3.5-3.9c-0.1-0.3-0.1-0.6-0.1-0.9c0-0.3,0-0.6,0.1-0.9l14-1v5.5c0.5-0.7,1.2-1.4,2.1-2.1c0.8-0.7,1.7-1.4,2.7-2
		c1-0.6,2.1-1.1,3.2-1.4c1.2-0.3,2.4-0.5,3.6-0.5c3.9,0,6.9,1.1,9.2,3.2c2.3,2.1,3.4,5.4,3.4,9.8v16.6c0.5,0,1,0,1.6,0.1
		c0.6,0.1,1.1,0.2,1.7,0.2c0.6,0.1,1.1,0.2,1.6,0.3c0.5,0.1,0.9,0.2,1.1,0.3l0.2,5.5h-18.8l0.1-5.5c0.5-0.2,1.1-0.3,1.8-0.5
		c0.7-0.2,1.4-0.3,2.2-0.4V98.2c0-1-0.1-1.9-0.4-2.7c-0.2-0.9-0.6-1.6-1.1-2.3c-0.5-0.7-1.2-1.2-2.1-1.6c-0.9-0.4-2-0.6-3.3-0.6
		c-1,0-2,0.1-2.8,0.4c-0.8,0.3-1.6,0.7-2.3,1.2c-0.7,0.5-1.4,1-2,1.6c-0.6,0.6-1.2,1.1-1.7,1.6v17.8c1.7,0.3,3.1,0.6,4.2,1l0.1,5.5
		H317L317.3,114.4z"/>
	<path class="st0" d="M394,118.9c-0.4-0.4-0.8-0.8-1-1.3c-0.3-0.5-0.5-1-0.7-1.6c-1.4,1.4-3,2.6-4.9,3.5c-1.9,0.9-4.1,1.3-6.5,1.3
		c-2.2,0-4.4-0.4-6.3-1.2c-2-0.8-3.6-2-5.1-3.6c-1.4-1.6-2.5-3.4-3.3-5.5c-0.8-2.1-1.2-4.6-1.2-7.2c0-2.9,0.5-5.6,1.4-8
		c1-2.4,2.3-4.4,4-6.1c1.7-1.7,3.7-2.9,5.9-3.9c2.3-0.9,4.8-1.4,7.4-1.4c1.1,0,2.3,0.1,3.6,0.4c1.3,0.3,2.7,0.8,4.1,1.6V67.7
		c-1.4,0-2.6-0.4-3.7-1.1c-1-0.7-1.6-1.7-1.7-3c0-0.3,0-0.6,0-0.9c0-0.3,0-0.6,0.1-1l14.4-1l-0.5,6.8v43.2c0,0.4,0,0.8,0.1,1.1
		c0.1,0.3,0.1,0.6,0.2,0.8l0.2,0.7l5.8,1.2v5.1c-0.6,0.2-1.3,0.3-1.8,0.5c-0.6,0.1-1.2,0.2-1.8,0.3c-0.6,0.1-1.3,0.2-2.1,0.2
		c-1.5,0.1-2.8,0-3.8-0.3C395.8,120.2,394.9,119.7,394,118.9z M384,114.6c1.5,0,2.8-0.4,4.1-1.2c1.3-0.8,2.4-1.8,3.3-2.9v-18
		c-2.1-1.7-4.5-2.6-7.2-2.6c-1.4,0-2.7,0.3-4,0.9c-1.3,0.6-2.4,1.5-3.4,2.6c-1,1.1-1.8,2.5-2.4,4.1c-0.6,1.6-0.9,3.4-0.9,5.4
		c0,2,0.3,3.7,0.8,5.2c0.6,1.5,1.3,2.7,2.3,3.7c1,1,2.1,1.7,3.4,2.2C381.3,114.4,382.6,114.6,384,114.6z"/>
	<path class="st0" d="M430.1,120.6c-2.6,0-5-0.4-7.2-1.2c-2.2-0.8-4.2-2-5.9-3.6c-1.7-1.6-3-3.5-4-5.7c-1-2.2-1.4-4.8-1.4-7.6
		c0-2.8,0.4-5.3,1.3-7.6c0.9-2.3,2.1-4.2,3.7-5.9c1.6-1.6,3.5-2.9,5.7-3.8c2.2-0.9,4.8-1.3,7.6-1.3c2,0,3.9,0.3,5.8,1
		c1.9,0.7,3.5,1.7,5,3.1c1.4,1.3,2.6,3,3.5,5c0.9,2,1.3,4.3,1.3,6.8c0,0.2,0,0.5,0,1c0,0.4-0.1,0.9-0.2,1.3
		c-0.1,0.5-0.2,0.9-0.2,1.3c-0.1,0.4-0.2,0.7-0.3,0.9h-23.3c0.1,3.4,1.1,6,2.9,7.8c1.8,1.8,4.3,2.7,7.5,2.7c1.9,0,3.7-0.3,5.4-1
		c1.7-0.6,3.5-1.6,5.3-2.9l0.6,5.6c-1.9,1.6-3.9,2.7-5.9,3.3C435.1,120.3,432.8,120.6,430.1,120.6z M436.8,98.6
		c0.1-1.5-0.1-2.8-0.5-3.9c-0.4-1.1-0.9-2-1.6-2.7c-0.7-0.7-1.4-1.3-2.3-1.6c-0.9-0.3-1.8-0.5-2.7-0.5c-2.4,0-4.3,0.8-5.7,2.3
		c-1.4,1.5-2.3,3.7-2.7,6.4H436.8z"/>
	<path class="st0" d="M448.3,114.4c0.6-0.2,1.5-0.4,2.7-0.6c1.2-0.2,2.3-0.3,3.3-0.4V91.2c-1.4,0-2.7-0.4-3.7-1.1
		c-1-0.7-1.6-1.7-1.7-2.9c-0.1-0.7-0.1-1.3,0.1-1.8l14-1.1l-0.1,6.3v1c0.3-0.7,0.8-1.6,1.4-2.5c0.6-0.9,1.4-1.8,2.3-2.5
		c0.9-0.8,2-1.4,3.1-2c1.2-0.5,2.5-0.8,3.9-0.8c1.2,0,2.3,0.1,3.4,0.4c1.1,0.3,1.9,1,2.5,2l-0.9,8c-0.3,0.1-0.6,0.1-0.9,0.1
		c-0.3,0-0.6,0-0.9,0c-2.4-0.1-3.8-1.4-4.4-4.1c-1.1,0-2.2,0.4-3.3,1.1c-1.1,0.8-2.1,1.7-3,2.7c-0.9,1.1-1.7,2.2-2.3,3.4
		c-0.6,1.2-1,2.2-1,3.1v12.9c0.5,0,1.1,0,1.8,0.1c0.7,0.1,1.4,0.2,2.1,0.2c0.7,0.1,1.4,0.2,2,0.3c0.6,0.1,1.1,0.2,1.3,0.3l0.2,5.5
		h-22.1L448.3,114.4z"/>
</g>
<g>
	<g>
		<path class="st1" d="M18.2,45.7v-15c0-7.2,5.8-13,13-13V0C14.1,0,0.4,13.8,0.4,30.8V63C3.9,55.3,10.3,49,18.2,45.7z"/>
	</g>
	<g>
		<path class="st1" d="M60.1,66.4c-2.2,6-8,10.3-14.7,10.3c-0.4,0-0.8,0-1.2,0c0,0.1,0,0.2,0,0.3v16.5c0,7.2-5.8,13-13,13
			c-4,0-7.6-1.8-10-4.7v20.8c3.1,1.1,6.5,1.7,10,1.7c17,0,30.8-13.8,30.8-30.8V76.9C61.9,73.2,61.3,69.6,60.1,66.4z"/>
	</g>
	<g>
		<path class="st1" d="M29.9,63.9c-0.2-1-0.3-2-0.3-3c0-6.1,3.4-11.4,8.6-14c-2.3-0.5-4.7-0.8-7.1-0.8c-3.5,0-6.9,0.6-10,1.7
			c-0.5,0.2-1,0.3-1.5,0.5c-0.5,0.2-1,0.4-1.5,0.6C7.6,53.9,0.4,64.5,0.4,76.9v16.5v30.8h17.8v-2.9V76.9c0-2.2,0.5-4.2,1.5-6
			c0.4-0.8,0.9-1.5,1.5-2.2C23.3,66,26.4,64.3,29.9,63.9z"/>
	</g>
</g>
<circle class="st0" cx="45.3" cy="60.9" r="12.7"/>
</svg>
