<?xml version="1.0" encoding="UTF-8"?>
<svg version="1.1" xmlns="http://www.w3.org/2000/svg" width="1109" height="250">
<path d="M0 0 C-1.62918178 5.10879224 -4.72091165 8.99709152 -7.875 13.25 C-9.06073045 14.8691808 -10.24560731 16.488987 -11.4296875 18.109375 C-12.3283252 19.33624023 -12.3283252 19.33624023 -13.24511719 20.58789062 C-15.87074417 24.19684925 -18.43700635 27.84642553 -21 31.5 C-25.66055885 38.12978738 -30.38945336 44.70729787 -35.14453125 51.26953125 C-38.79995637 56.32082276 -42.41353602 61.39955362 -46 66.5 C-50.70101374 73.18452119 -55.46400384 79.82179678 -60.2565918 86.44091797 C-65.20210323 93.27190094 -70.10767151 100.13086157 -75 107 C-79.45320189 102.89879752 -82.65931767 98.34161568 -86 93.3125 C-90.33511376 86.87923313 -94.74035085 80.51708936 -99.3125 74.25 C-105.02770716 66.40087092 -110.58684643 58.44986687 -116.11938477 50.47119141 C-120.14022634 44.67284217 -124.17671195 38.88663447 -128.25 33.125 C-128.72381104 32.45412354 -129.19762207 31.78324707 -129.68579102 31.09204102 C-132.20414051 27.52938196 -134.73145755 23.97329975 -137.265625 20.421875 C-137.80670898 19.66116699 -138.34779297 18.90045898 -138.90527344 18.11669922 C-139.93183407 16.67366803 -140.96093281 15.23243735 -141.99316406 13.79345703 C-144.93549268 9.65243959 -147.54925316 5.45064874 -150 1 C-113.32507265 3.16173352 -113.32507265 3.16173352 -101 17 C-98.80324716 19.89407568 -96.80364193 22.89944006 -94.8125 25.9375 C-88.84202095 34.86557341 -82.52736117 43.47326694 -76 52 C-71.88321574 48.30874872 -69.05420884 43.87238821 -66 39.3125 C-64.83902907 37.60643906 -63.6775597 35.90071721 -62.515625 34.1953125 C-60.25798462 30.86845959 -58.02195815 27.52836855 -55.796875 24.1796875 C-48.89133245 13.90531997 -43.83759555 7.0869646 -31.25 4.3125 C-28.50066678 3.84262413 -25.75858778 3.40531499 -23 3 C-21.66364502 2.79697266 -21.66364502 2.79697266 -20.30029297 2.58984375 C-3.17757601 0 -3.17757601 0 0 0 Z " fill="#2AF3FF" transform="translate(150,102)"/>
<path d="M0 0 C21 0 21 0 26.4375 5.375 C27.72924805 7.26245117 27.72924805 7.26245117 28.63671875 8.98046875 C31.24321999 13.57114203 34.46159501 17.57039368 37.75 21.6875 C38.94217127 23.21453427 40.13225082 24.74320371 41.3203125 26.2734375 C41.92133789 27.04526367 42.52236328 27.81708984 43.14160156 28.61230469 C45.05141618 31.0660602 46.9595375 33.52112383 48.8671875 35.9765625 C49.49657227 36.78649658 50.12595703 37.59643066 50.77441406 38.4309082 C51.97713189 39.97873306 53.17961879 41.5267374 54.38183594 43.07495117 C55.20216309 44.13033081 55.20216309 44.13033081 56.0390625 45.20703125 C56.51553223 45.8203833 56.99200195 46.43373535 57.48291016 47.06567383 C59.30578222 49.38987971 61.15479046 51.69348807 63 54 C63.33 36.18 63.66 18.36 64 0 C70.93 0 77.86 0 85 0 C85 31.02 85 62.04 85 94 C78.73 94 72.46 94 66 94 C59.29774169 87.15811131 59.29774169 87.15811131 57.45703125 83.9765625 C55.13538435 80.14820658 52.50565125 76.72184874 49.6875 73.25 C48.77633974 72.0955664 47.86754804 70.93926006 46.9609375 69.78125 C46.48881836 69.17925781 46.01669922 68.57726562 45.53027344 67.95703125 C42.04808187 63.50373712 38.58365582 59.03651741 35.12182617 54.56738281 C30.80107952 48.99901185 26.40442315 43.50552893 22 38 C21.67 56.48 21.34 74.96 21 94 C14.07 94 7.14 94 0 94 C0 62.98 0 31.96 0 0 Z " fill="#0A0523" transform="translate(632,103)"/>
<path d="M0 0 C11.446875 -0.12375 11.446875 -0.12375 23.125 -0.25 C26.69272217 -0.30462402 26.69272217 -0.30462402 30.33251953 -0.36035156 C48.33841524 -0.52227258 63.04668693 1.56860319 76.8125 14.3125 C87.16612658 25.43582064 89.80159988 37.63600543 89.33984375 52.3671875 C88.6514816 64.45394498 83.21318648 73.87049279 74.6796875 82.2890625 C53.74003154 100.26619479 26.29620141 95 0 95 C0 63.65 0 32.3 0 0 Z M22 19 C22 37.48 22 55.96 22 75 C41.86679201 75.88084657 41.86679201 75.88084657 58.2421875 67.8125 C64.55023167 61.30820557 66.39081731 53.80346625 66.2734375 45.01171875 C65.5705095 37.26946896 62.82223146 30.65060734 56.9921875 25.43359375 C46.2305975 17.68946918 35.26661307 19 22 19 Z " fill="#0A0523" transform="translate(194,103)"/>
<path d="M0 0 C8.6625 -0.0825 17.325 -0.165 26.25 -0.25 C30.31489746 -0.30462402 30.31489746 -0.30462402 34.46191406 -0.36035156 C36.64647636 -0.37205062 38.83104747 -0.38223955 41.015625 -0.390625 C42.12019043 -0.41108887 43.22475586 -0.43155273 44.36279297 -0.45263672 C55.11248724 -0.45738272 64.74942005 1.96525467 73.08984375 9.00390625 C80.2014176 16.43542821 81.37850692 24.64165381 81.27734375 34.578125 C80.66530805 42.12943876 78.00222225 48.93866392 72.79296875 54.49609375 C69.52410712 57.23794936 65.82840639 59.15385736 62 61 C66.64759501 68.57688904 71.64986865 75.84744226 76.82324219 83.07202148 C77.56815918 84.11531616 77.56815918 84.11531616 78.328125 85.1796875 C78.99183105 86.10370361 78.99183105 86.10370361 79.66894531 87.04638672 C81.21098868 89.30967194 82.60947979 91.64120912 84 94 C77.42448013 94.50794044 70.86925395 94.79668377 64.2734375 94.66015625 C63.18981934 94.64090088 62.10620117 94.62164551 60.98974609 94.60180664 C57.23098161 93.84520412 55.69126518 92.42160855 53.125 89.625 C52.01486755 87.45027899 50.98319845 85.23497793 50 83 C44.73981763 71.86734312 44.73981763 71.86734312 35.89648438 64.09765625 C30.99696763 63.05667025 27.15632812 63.55548895 22 64 C22 73.9 22 83.8 22 94 C14.74 94 7.48 94 0 94 C0 62.98 0 31.96 0 0 Z M22 19 C22 27.58 22 36.16 22 45 C25.980625 45.061875 29.96125 45.12375 34.0625 45.1875 C35.30394775 45.21481201 36.54539551 45.24212402 37.82446289 45.27026367 C45.302161 45.3264234 50.13528859 44.64427623 56.375 40.375 C58.83159168 36.78459678 59.1942509 33.30340457 59 29 C57.51949878 24.79225968 55.88510548 22.23687891 52 20 C48.61643723 18.90095609 45.46413024 18.88497975 41.921875 18.90234375 C40.35324707 18.90609009 40.35324707 18.90609009 38.75292969 18.90991211 C36.77147949 18.92356812 36.77147949 18.92356812 34.75 18.9375 C30.5425 18.958125 26.335 18.97875 22 19 Z " fill="#2AF3FF" transform="translate(739,103)"/>
<path d="M0 0 C1.8359375 1.71875 1.8359375 1.71875 3 3 C1.2703384 7.20953787 -1.68206745 10.35143576 -4.625 13.75 C-5.140625 14.35199219 -5.65625 14.95398438 -6.1875 15.57421875 C-7.45469135 17.05260866 -8.72685775 18.52673171 -10 20 C-11.08667969 19.38511719 -11.08667969 19.38511719 -12.1953125 18.7578125 C-13.16210938 18.21898437 -14.12890625 17.68015625 -15.125 17.125 C-16.07632813 16.59132813 -17.02765625 16.05765625 -18.0078125 15.5078125 C-26.4204302 11.26855606 -35.84910394 10.19895331 -44.98828125 12.875 C-52.10957764 16.16008968 -56.22016145 20.67763471 -59.875 27.5 C-62.73236105 36.29451246 -62.12647351 46.66135089 -58.19921875 54.984375 C-54.68549863 60.89017168 -49.17648865 64.72940454 -42.875 67.25 C-33.92232757 68.98277531 -26.6022628 68.39050969 -18.1796875 64.875 C-16 64 -16 64 -14 64 C-14 59.71 -14 55.42 -14 51 C-21.26 51 -28.52 51 -36 51 C-36 44.73 -36 38.46 -36 32 C-21.81 32 -7.62 32 7 32 C7.28875 38.744375 7.5775 45.48875 7.875 52.4375 C8.06618408 55.60363892 8.06618408 55.60363892 8.26123047 58.83374023 C8.71327984 71.72437541 8.71327984 71.72437541 5.66326904 75.77548218 C1.90353165 79.15734021 -2.35745332 81.09587559 -7 83 C-7.94641357 83.45270264 -8.89282715 83.90540527 -9.86791992 84.37182617 C-23.19300098 90.66322464 -38.19471175 90.12555076 -52 86 C-65.19399722 80.94235852 -75.18332509 73.32584302 -81.22265625 60.37890625 C-86.44250483 47.7876586 -86.84966387 33.80613783 -82.2578125 20.9296875 C-76.52241555 7.57084368 -67.42102778 -1.79502388 -53.8828125 -7.2578125 C-35.5529321 -13.31132958 -15.87812163 -11.08948177 0 0 Z " fill="#0A0523" transform="translate(606,111)"/>
<path d="M0 0 C24.42 0 48.84 0 74 0 C74 6.27 74 12.54 74 19 C57.17 19 40.34 19 23 19 C23 24.94 23 30.88 23 37 C37.85 37 52.7 37 68 37 C68 43.27 68 49.54 68 56 C53.15 56 38.3 56 23 56 C23 62.27 23 68.54 23 75 C40.16 75 57.32 75 75 75 C75 81.27 75 87.54 75 94 C50.58 94 26.16 94 1 94 C0.67 62.98 0.34 31.96 0 0 Z " fill="#0A0523" transform="translate(300,103)"/>
<path d="M0 0 C7.26 0 14.52 0 22 0 C22 12.21 22 24.42 22 37 C34.54 37 47.08 37 60 37 C60 24.79 60 12.58 60 0 C66.93 0 73.86 0 81 0 C81 31.02 81 62.04 81 94 C74.07 94 67.14 94 60 94 C60 81.79 60 69.58 60 57 C47.46 57 34.92 57 22 57 C22 69.21 22 81.42 22 94 C14.74 94 7.48 94 0 94 C0 62.98 0 31.96 0 0 Z " fill="#2AF4FF" transform="translate(1028,103)"/>
<path d="M0 0 C3.47914941 -0.02887814 6.95826831 -0.04675687 10.4375 -0.0625 C11.92733398 -0.07506836 11.92733398 -0.07506836 13.44726562 -0.08789062 C14.39150391 -0.09111328 15.33574219 -0.09433594 16.30859375 -0.09765625 C17.62041626 -0.10551147 17.62041626 -0.10551147 18.95874023 -0.11352539 C21 0 21 0 22 1 C22.10769813 2.83434463 22.1462665 4.67278607 22.15771484 6.51025391 C22.16797699 7.68882965 22.17823914 8.8674054 22.18881226 10.08169556 C22.19611359 11.36700165 22.20341492 12.65230774 22.2109375 13.9765625 C22.23182013 15.98404998 22.25272025 17.99153745 22.27463722 19.9990139 C22.32783426 24.96330291 22.37189464 29.92760258 22.40136719 34.89208984 C22.41830947 37.67090663 22.44305155 40.44944857 22.47622681 43.2281189 C22.50714676 45.8468409 22.52660352 48.46572926 22.53329468 51.08462524 C22.64413245 59.09641053 23.13847486 64.42309358 28.25 70.8125 C33.29732788 74.82741991 38.68732187 75.54419639 45 75 C49.58614318 74.00335089 53.03751757 72.93780339 56.4375 69.625 C60.14826117 63.39092123 61.09131541 57.37694112 61.20532227 50.17822266 C61.22526749 49.05751373 61.24521271 47.93680481 61.26576233 46.78213501 C61.29083107 44.99118912 61.29083107 44.99118912 61.31640625 43.1640625 C61.33718735 41.92957367 61.35796844 40.69508484 61.37937927 39.42318726 C61.44461836 35.49051329 61.50364052 31.55777411 61.5625 27.625 C61.60520612 24.95441143 61.64932464 22.28384851 61.69335938 19.61328125 C61.8002735 13.07558719 61.90161306 6.53782772 62 0 C69.26 0 76.52 0 84 0 C84.04993407 7.25503571 84.0859693 14.50996843 84.10986328 21.76513672 C84.1198384 24.2264175 84.13342331 26.68768669 84.15087891 29.14892578 C84.41638207 67.58441354 84.41638207 67.58441354 76 81 C75.61972656 81.61359375 75.23945312 82.2271875 74.84765625 82.859375 C69.36715058 90.42676361 60.23458209 93.79226229 51.42578125 95.53125 C38.75332064 97.26522409 24.91643235 96.32487885 14 89 C6.05611647 82.7844928 1.60535516 73.88533916 0 64 C-0.26992778 59.07290445 -0.23355206 54.15124626 -0.1953125 49.21875 C-0.19157606 47.79529012 -0.18873207 46.37182764 -0.18673706 44.94836426 C-0.17915025 41.22640716 -0.15954519 37.50460953 -0.1373291 33.78271484 C-0.11676314 29.97495683 -0.1077125 26.16717271 -0.09765625 22.359375 C-0.07629389 14.9061778 -0.04221885 7.45311136 0 0 Z " fill="#2AF3FF" transform="translate(837,102)"/>
<path d="M0 0 C1.32 1.32 2.64 2.64 4 4 C0.37 9.28 -3.26 14.56 -7 20 C-11.52076545 18.19169382 -15.88395544 16.2023975 -20.28125 14.12109375 C-26.81019096 11.42884367 -33.83208433 10.86860155 -40.5 13.25 C-43.04350744 14.76348086 -43.04350744 14.76348086 -44.0625 16.875 C-43.9702035 20.01308113 -42.88680942 21.50616379 -41 24 C-38.00720545 25.48410092 -38.00720545 25.48410092 -34.4375 26.4375 C-33.08981586 26.8553788 -31.7421609 27.27335176 -30.39453125 27.69140625 C-28.93015241 28.1291624 -27.46529093 28.56530662 -26 29 C-2.40086549 36.03153829 -2.40086549 36.03153829 3.5 45.6875 C7.04126546 53.50779457 7.07152603 61.58902191 4.4375 69.75 C0.99919448 78.16007135 -4.55769974 82.18917783 -12.5703125 86.0546875 C-25.33587754 91.02135428 -42.90523317 88.93165076 -55.14453125 83.640625 C-60.84140491 80.91511701 -66.00582356 77.85913634 -71 74 C-66.93866463 68.40636594 -62.6208599 63.14036486 -58 58 C-57.05125 58.556875 -56.1025 59.11375 -55.125 59.6875 C-53.75281054 60.46332543 -52.37749313 61.23363083 -51 62 C-50.22785156 62.43183594 -49.45570313 62.86367187 -48.66015625 63.30859375 C-40.05742454 67.88856308 -31.68512792 70.24969507 -22 68 C-18.88807839 67.16983836 -18.88807839 67.16983836 -17 65 C-16.58005919 62.20407827 -16.76611561 59.85338956 -17 57 C-24.31212815 52.5457117 -32.12087916 50.370684 -40.3347168 48.23193359 C-49.61937406 45.75568178 -58.9617298 42.22952814 -64.375 33.75 C-67.60280563 26.64340273 -67.21038617 16.82722058 -65.33984375 9.3671875 C-64.41411923 7.32338011 -63.40354121 5.74709459 -62 4 C-61.53722656 3.39027344 -61.07445312 2.78054687 -60.59765625 2.15234375 C-45.88400869 -14.79173449 -17.18862056 -10.64488256 0 0 Z " fill="#0A0523" transform="translate(456,110)"/>
<path d="M0 0 C-3.18756546 6.09304549 -6.72709561 11.61114807 -11 17 C-15.52630452 15.23703719 -19.89238141 13.19840936 -24.28125 11.12109375 C-29.68216089 8.893994 -35.21092835 8.39062404 -41 9 C-44.45346148 10.34746524 -44.45346148 10.34746524 -47 12 C-47.33380814 15.37436186 -47.33380814 15.37436186 -47 19 C-43.82877058 22.23529466 -39.73619517 23.20923336 -35.5 24.4375 C-34.0597388 24.87448277 -32.61963583 25.31198736 -31.1796875 25.75 C-28.66522641 26.5039956 -26.14926375 27.25265485 -23.6328125 28 C-14.26139877 30.92096012 -4.87766259 34.61720136 -0.10546875 43.703125 C3.31436271 51.38603403 3.07495686 60.06155224 0.109375 67.8671875 C-3.80921889 75.40082223 -10.24779128 80.75638478 -18.125 83.75 C-35.62457641 88.53462739 -52.92523027 84.22635217 -68.35546875 75.68359375 C-70.58548558 74.26389323 -72.2603624 72.96680677 -74 71 C-72.37983645 67.29299535 -70.06115893 64.42663642 -67.5 61.3125 C-66.7059375 60.33925781 -65.911875 59.36601562 -65.09375 58.36328125 C-63 56 -63 56 -61 55 C-58.71484375 56.328125 -58.71484375 56.328125 -55.9375 58.25 C-48.23669669 63.283598 -40.33562509 66.29128315 -31 66 C-25.576404 64.87797533 -25.576404 64.87797533 -21 62 C-20.92851801 60.64756083 -20.91600546 59.29165633 -20.9375 57.9375 C-20.958125 56.638125 -20.97875 55.33875 -21 54 C-27.47079873 50.05821964 -34.18216489 48.00830692 -41.4375 46.0625 C-52.11700833 43.13972649 -61.47141271 40.36414381 -67.9765625 30.83203125 C-71.59080147 24.36226759 -70.99431669 14.30670903 -69.3515625 7.19140625 C-66.13136207 -0.7490025 -60.75136436 -5.48377809 -53 -8.875 C-35.71613188 -15.81612789 -14.38160462 -11.34159064 0 0 Z " fill="#2AF3FF" transform="translate(1009,113)"/>
<path d="M0 0 C7.26 0 14.52 0 22 0 C22 31.02 22 62.04 22 94 C14.74 94 7.48 94 0 94 C0 62.98 0 31.96 0 0 Z " fill="#0A0523" transform="translate(480,103)"/>
<path d="M0 0 C6.35590876 5.17888862 9.51128987 13.58911006 10.7734375 21.49609375 C11.58085827 30.41948542 9.65953793 36.0758308 4 43 C2.71434077 44.40136856 1.4228047 45.79737179 0.125 47.1875 C-2.39448315 49.95062548 -2.95578463 50.64627705 -3.4375 54.5 C-3.293125 55.325 -3.14875 56.15 -3 57 C-0.09777526 57.85479988 1.46698484 58.21482398 4.31640625 57.06640625 C12.22780132 51.76921129 14.74685416 46.01258337 17 37 C17.33 37 17.66 37 18 37 C18.5357524 49.48104676 17.39639137 60.22715103 9 70 C2.12484005 76.46423085 -5.64547753 77.48804751 -14.83984375 77.30859375 C-20.15768551 76.78929894 -23.94640985 75.26461069 -27.55859375 71.28125 C-30.9553684 66.73938701 -32.17355416 63.02390549 -32.3125 57.3125 C-32.34988281 56.31863281 -32.38726562 55.32476562 -32.42578125 54.30078125 C-31.05819969 43.69888751 -22.89884096 37.65555337 -15.44140625 30.7734375 C-6.24183318 21.97146148 -1.44629602 12.66755823 0 0 Z " fill="#2AF3FF" transform="translate(89,27)"/>
<path d="M0 0 C5.04948209 1.6831607 6.62663264 6.45775908 9 11 C13.15409554 19.39711667 14.31760803 27.69566021 13 37 C9.66341916 46.03555834 2.13884904 52.33448396 -5 58.4375 C-11.98162839 64.48273641 -19.42112979 71.14845423 -20.23828125 80.8203125 C-20.38287883 86.89341102 -19.78406633 92.20178442 -18 98 C-24.94323501 93.30310573 -30.22277763 85.21601161 -32 77 C-33.9484589 62.36490873 -27.17013993 49.25329389 -20 37 C-19.34 37 -18.68 37 -18 37 C-17.51171875 39.01822917 -17.0234375 41.03645833 -16.53515625 43.0546875 C-16.05153008 45.0585657 -16.05153008 45.0585657 -15 47 C-12.61915122 47.84298574 -12.61915122 47.84298574 -10 48 C-6.84073639 46.31582211 -6.84073639 46.31582211 -6.0625 43.5 C-5.99845999 39.91375921 -6.49636437 38.55367504 -7.9375 35.375 C-10.9032567 28.42368253 -11.48142166 21.93771434 -8.7890625 14.78125 C-6.26287721 9.60064667 -3.37447236 4.67234635 0 0 Z " fill="#2AF3FF" transform="translate(73,0)"/>
<path d="M0 0 C0 0.66 0 1.32 0 2 C-1.80859375 3.3046875 -1.80859375 3.3046875 -4.4375 4.875 C-9.46125641 7.98188136 -14.31062815 11.26557399 -19.125 14.6875 C-20.21071289 15.45888306 -20.21071289 15.45888306 -21.31835938 16.24584961 C-22.80689702 17.30458671 -24.29501267 18.36391736 -25.78271484 19.42382812 C-27.9301716 20.95036202 -30.08290156 22.4690535 -32.23828125 23.984375 C-46.26345991 33.84470807 -60.14675989 43.89995049 -74 54 C-74.33 53.34 -74.66 52.68 -75 52 C-73.97407762 50.52205261 -72.9480014 49.044212 -71.921875 47.56640625 C-71.26131104 46.61499756 -70.60074707 45.66358887 -69.92016602 44.68334961 C-68.46459269 42.59013396 -67.00671865 40.49851643 -65.54663086 38.40844727 C-62.18593849 33.59685728 -58.8383372 28.78143095 -55.58203125 23.8984375 C-48.74390399 13.71761093 -43.72607687 7.06238448 -31.25 4.3125 C-28.50066678 3.84262413 -25.75858778 3.40531499 -23 3 C-22.10909668 2.86464844 -21.21819336 2.72929688 -20.30029297 2.58984375 C-3.17757601 0 -3.17757601 0 0 0 Z " fill="#2AD3FF" transform="translate(150,102)"/>
<path d="M0 0 C14.91905952 -0.33924989 32.05066115 0.32855273 43.36328125 11.09765625 C47.2753509 15.0969859 50.31142037 19.52401968 53.375 24.1875 C57.87210043 30.92858175 62.50873217 37.43488948 67.5859375 43.75 C68.28589844 44.86375 68.28589844 44.86375 69 46 C68.67 46.99 68.34 47.98 68 49 C66.17225829 47.67996432 64.344528 46.35991286 62.5168457 45.03979492 C60.89577722 43.86912436 59.27451462 42.69872255 57.65307617 41.52856445 C53.63276907 38.6266625 49.61464885 35.72194756 45.60546875 32.8046875 C37.11235309 26.63244944 28.55514297 20.55987173 19.9375 14.5625 C18.98593018 13.90016357 18.03436035 13.23782715 17.05395508 12.55541992 C11.94390271 9.0098802 6.80494653 5.52522021 1.58422852 2.14428711 C1.06143311 1.76667236 0.5386377 1.38905762 0 1 C0 0.67 0 0.34 0 0 Z " fill="#2AD3FF" transform="translate(2,104)"/>
<path d="M0 0 C-2.63787482 3.99648095 -5.28897731 7.98371189 -7.95288086 11.96289062 C-8.85764177 13.31848858 -9.75870382 14.67656273 -10.65600586 16.03710938 C-11.94466728 17.98966981 -13.24626509 19.93300815 -14.55078125 21.875 C-14.9508992 22.48746582 -15.35101715 23.09993164 -15.76325989 23.73095703 C-16.9152832 25.4296875 -16.9152832 25.4296875 -19 28 C-19.99 28 -20.98 28 -22 28 C-23.4387207 26.47460938 -23.4387207 26.47460938 -24.92578125 24.34375 C-25.47556641 23.56773437 -26.02535156 22.79171875 -26.59179688 21.9921875 C-27.15962891 21.16976562 -27.72746094 20.34734375 -28.3125 19.5 C-29.43288692 17.90575303 -30.5539767 16.31199977 -31.67578125 14.71875 C-32.4968335 13.54119141 -32.4968335 13.54119141 -33.33447266 12.33984375 C-35.45045928 9.36716479 -37.67204707 6.48304751 -39.92260742 3.61132812 C-41 2 -41 2 -41 0 C-31.9933162 0.74241645 -31.9933162 0.74241645 -28.484375 1.65234375 C-21.29425572 3.51604031 -15.76018356 2.38617912 -8.74975586 0.43676758 C-3.25780441 -1.0859348 -3.25780441 -1.0859348 0 0 Z " fill="#2AD5FF" transform="translate(95,110)"/>
<path d="M0 0 C5.24838026 3.49892018 6.36221925 9.87102196 7.58203125 15.85546875 C8.38385812 22.10266933 8.16191925 27.44992423 5 33 C2.80401391 35.75000087 0.50417944 38.30602127 -1.94140625 40.8359375 C-4.52894236 43.55604187 -5.91802323 45.21302301 -6.3125 49 C-6.27257488 52.00549465 -6.27257488 52.00549465 -4.5 53.875 C-4.005 54.24625 -3.51 54.6175 -3 55 C-8.52122224 56.53993273 -13.8164056 57.13728875 -19 54.4375 C-21.68711133 51.16258307 -22.07169413 49.22995354 -22 45 C-19.37249191 38.31179759 -14.70596673 35.1068423 -9 31 C-7.34786864 29.75833606 -5.70179832 28.50855806 -4.0625 27.25 C-3.33160156 26.69828125 -2.60070312 26.1465625 -1.84765625 25.578125 C0.6960465 23.40549094 1.92258724 21.75818973 2.265625 18.3984375 C2.2322869 11.9475158 1.66327218 6.23727069 0 0 Z " fill="#2AD3FF" transform="translate(92,32)"/>
<path d="M0 0 C2.29604234 4.2061952 3.03772466 8.3260912 4 13 C7.96 13 11.92 13 16 13 C12.54602565 16.45397435 11.30872286 17.56375905 7 19 C7.22816406 19.68707031 7.45632812 20.37414062 7.69140625 21.08203125 C7.97886719 21.98308594 8.26632813 22.88414062 8.5625 23.8125 C8.85253906 24.70582031 9.14257812 25.59914062 9.44140625 26.51953125 C10 29 10 29 9 32 C4.545 29.03 4.545 29.03 0 26 C-3.63 27.98 -7.26 29.96 -11 32 C-10.18079905 27.90399524 -9.17665969 24.00064296 -8 20 C-8.6496875 19.57847656 -9.299375 19.15695313 -9.96875 18.72265625 C-11.22171875 17.90087891 -11.22171875 17.90087891 -12.5 17.0625 C-13.75296875 16.24458984 -13.75296875 16.24458984 -15.03125 15.41015625 C-15.6809375 14.94480469 -16.330625 14.47945312 -17 14 C-17 13.67 -17 13.34 -17 13 C-12.71 13 -8.42 13 -4 13 C-3.71125 11.5975 -3.4225 10.195 -3.125 8.75 C-2.46276373 5.53342384 -1.57554035 2.88628401 0 0 Z " fill="#2AD6FF" transform="translate(74,218)"/>
<path d="M0 0 C2.79024052 4.18536078 3.10154594 8.05850265 4 13 C7.96 13 11.92 13 16 13 C13.42215154 15.64752004 11.08351902 17.94432065 8 20 C8.66 23.96 9.32 27.92 10 32 C7.4609375 30.53515625 7.4609375 30.53515625 4.921875 29.0703125 C2.97930801 27.98847641 0.98875555 26.99437778 -1 26 C-3.64 27.98 -6.28 29.96 -9 32 C-9.66 31.67 -10.32 31.34 -11 31 C-9.515 25.555 -9.515 25.555 -8 20 C-9.32 19.030625 -10.64 18.06125 -12 17.0625 C-13.35348244 16.06853634 -14.69243643 15.0536394 -16 14 C-16 13.67 -16 13.34 -16 13 C-12.04 13 -8.08 13 -4 13 C-3.71125 11.5975 -3.4225 10.195 -3.125 8.75 C-2.46276373 5.53342384 -1.57554035 2.88628401 0 0 Z " fill="#2AD6FF" transform="translate(22,218)"/>
<path d="M0 0 C2.87579981 4.31369972 4 7.80734761 4 13 C8.29 13 12.58 13 17 13 C14.01926159 15.38459073 11.06244988 17.73151861 8 20 C8.350625 21.2375 8.70125 22.475 9.0625 23.75 C9.95593273 26.903292 10.00881294 28.86774164 9 32 C8.48050781 31.54367188 7.96101563 31.08734375 7.42578125 30.6171875 C5.34444139 28.90133246 3.33219867 27.35754848 1 26 C-3.18605373 26.58410052 -5.77465112 29.38485226 -9 32 C-9.66 32 -10.32 32 -11 32 C-10.52140759 30.39566191 -10.04210442 28.79153584 -9.5625 27.1875 C-9.29566406 26.29417969 -9.02882813 25.40085938 -8.75390625 24.48046875 C-8.19612127 22.64526945 -7.60655425 20.81966274 -7 19 C-7.7425 18.7525 -8.485 18.505 -9.25 18.25 C-12 17 -12 17 -16 13 C-12.04 13 -8.08 13 -4 13 C-3.525625 11.22625 -3.05125 9.4525 -2.5625 7.625 C-1.125 2.25 -1.125 2.25 0 0 Z " fill="#2AD6FF" transform="translate(126,218)"/>
<path d="M0 0 C1.09792965 3.29378895 0.85732524 4.86426597 0.375 8.25 C-0.21274078 14.05107787 0.81352734 17.77703338 4.12890625 22.6640625 C6.89237533 26.88148221 7.58350618 29.9458202 6.7421875 34.9765625 C6 37 6 37 3.25 39.5625 C0.12338884 40.94542417 -1.64674213 41.39450093 -5 41 C-4.80921875 40.46632812 -4.6184375 39.93265625 -4.421875 39.3828125 C-3.00143982 34.60948963 -2.75528803 31.76044505 -4.875 27.1875 C-7.78195413 20.8297738 -8.37900723 14.25137838 -6.19921875 7.53125 C-4.49586244 3.90093076 -3.41202003 2.27468002 0 0 Z " fill="#2AD7FF" transform="translate(70,8)"/>
</svg>
